OxygenSans-Bold.ufo
<glyph name="dollar" format="1">
  <advance width="1167.4576824"/>
  <unicode hex="0024"/>
  <outline>
    <contour>
      <point x="658" y="1735" type="line"/>
      <point x="572.0" y="1735.0" type="line"/>
      <point x="534.0" y="1404.0" type="line"/>
      <point x="701" y="1404" type="line"/>
    </contour>
    <contour>
      <point x="573" y="-278" type="line"/>
      <point x="659" y="-278" type="line"/>
      <point x="692.0" y="53.0" type="line"/>
      <point x="525" y="53" type="line"/>
    </contour>
    <component base="S"/>
  </outline>
</glyph>
<glyph name="ampersand" format="1">
  <advance width="1414"/>
  <unicode hex="0026"/>
  <outline>
    <contour>
      <point x="635.0" y="-18.0" type="curve" smooth="yes"/>
      <point x="813.0" y="-18.0"/>
      <point x="906.0" y="18.0"/>
      <point x="1032.0" y="111.0" type="curve"/>
      <point x="1166.0" y="-16.0" type="line"/>
      <point x="1365.0" y="61.0" type="line"/>
      <point x="1182.0" y="248.0" type="line"/>
      <point x="1248.0" y="319.0"/>
      <point x="1318.0" y="427.0"/>
      <point x="1359.0" y="513.0" type="curve"/>
      <point x="1206.0" y="613.0" type="line"/>
      <point x="1170.0" y="539.0"/>
      <point x="1108.0" y="438.0"/>
      <point x="1057.0" y="381.0" type="curve"/>
      <point x="704.0" y="771.0" type="line"/>
      <point x="872.0" y="859.0"/>
      <point x="1031.0" y="994.0"/>
      <point x="1031.0" y="1171.0" type="curve" smooth="yes"/>
      <point x="1031.0" y="1383.0"/>
      <point x="846.0" y="1476.0"/>
      <point x="655.0" y="1476.0" type="curve" smooth="yes"/>
      <point x="447.0" y="1476.0"/>
      <point x="265.0" y="1357.0"/>
      <point x="265.0" y="1145.0" type="curve" smooth="yes"/>
      <point x="265.0" y="1018.0"/>
      <point x="327.0" y="902.0"/>
      <point x="415.0" y="804.0" type="curve"/>
      <point x="253.0" y="713.0"/>
      <point x="129.0" y="604.0"/>
      <point x="129.0" y="392.0" type="curve" smooth="yes"/>
      <point x="129.0" y="116.0"/>
      <point x="346.0" y="-18.0"/>
    </contour>
    <contour>
      <point x="644.0" y="156.0" type="curve" smooth="yes"/>
      <point x="475.0" y="156.0"/>
      <point x="347.0" y="234.0"/>
      <point x="347.0" y="401.0" type="curve" smooth="yes"/>
      <point x="347.0" y="524.0"/>
      <point x="418.0" y="613.0"/>
      <point x="523.0" y="674.0" type="curve"/>
      <point x="911.0" y="244.0" type="line"/>
      <point x="840.0" y="187.0"/>
      <point x="757.0" y="156.0"/>
    </contour>
    <contour>
      <point x="599.0" y="895.0" type="curve"/>
      <point x="515.0" y="979.0"/>
      <point x="473.0" y="1072.0"/>
      <point x="473.0" y="1162.0" type="curve" smooth="yes"/>
      <point x="473.0" y="1266.0"/>
      <point x="555.0" y="1319.0"/>
      <point x="660.0" y="1319.0" type="curve" smooth="yes"/>
      <point x="763.0" y="1319.0"/>
      <point x="827.0" y="1268.0"/>
      <point x="827.0" y="1166.0" type="curve" smooth="yes"/>
      <point x="827.0" y="1050.0"/>
      <point x="714.0" y="954.0"/>
    </contour>
  </outline>
</glyph>
<glyph name="seven" format="1">
  <advance width="1217"/>
  <unicode hex="0037"/>
  <outline>
    <contour>
      <point x="343" y="0" type="line"/>
      <point x="588" y="0" type="line"/>
      <point x="1068" y="1298" type="line"/>
      <point x="1068" y="1457" type="line"/>
      <point x="178" y="1457" type="line"/>
      <point x="186" y="1266" type="line"/>
      <point x="811" y="1266" type="line"/>
    </contour>
  </outline>
</glyph>
<glyph name="D" format="1">
  <advance width="1486"/>
  <unicode hex="0044"/>
  <outline>
    <contour>
      <point x="388" y="108" type="line"/>
      <point x="388" y="1340" type="line"/>
      <point x="322" y="1276" type="line"/>
      <point x="578" y="1276" type="line" smooth="yes"/>
      <point x="936" y="1276"/>
      <point x="1138" y="1113"/>
      <point x="1138" y="731" type="curve" smooth="yes"/>
      <point x="1138" y="382"/>
      <point x="954" y="180"/>
      <point x="606" y="180" type="curve" smooth="yes"/>
      <point x="322" y="180" type="line"/>
    </contour>
    <contour>
      <point x="148" y="0" type="line"/>
      <point x="602" y="0" type="line" smooth="yes"/>
      <point x="1075" y="0"/>
      <point x="1390" y="260"/>
      <point x="1390" y="736" type="curve" smooth="yes"/>
      <point x="1390" y="1233"/>
      <point x="1052" y="1460"/>
      <point x="575" y="1460" type="curve" smooth="yes"/>
      <point x="148" y="1460" type="line"/>
    </contour>
  </outline>
</glyph>
<glyph name="E" format="1">
  <advance width="1161"/>
  <unicode hex="0045"/>
  <outline>
    <contour>
      <point x="148" y="0" type="line"/>
      <point x="1077" y="0" type="line"/>
      <point x="1085" y="191" type="line"/>
      <point x="318" y="191" type="line"/>
      <point x="388" y="122" type="line"/>
      <point x="388" y="738" type="line"/>
      <point x="317" y="667" type="line"/>
      <point x="1015" y="667" type="line"/>
      <point x="1015" y="854" type="line"/>
      <point x="318" y="854" type="line"/>
      <point x="388" y="785" type="line"/>
      <point x="388" y="1342" type="line"/>
      <point x="318" y="1274" type="line"/>
      <point x="1058" y="1274" type="line"/>
      <point x="1068" y="1460" type="line"/>
      <point x="148" y="1460" type="line"/>
    </contour>
  </outline>
</glyph>
<glyph name="G" format="1">
  <advance width="1432"/>
  <unicode hex="0047"/>
  <outline>
    <contour>
      <point x="795" y="-20" type="curve" smooth="yes"/>
      <point x="993" y="-20"/>
      <point x="1152" y="17"/>
      <point x="1306" y="81" type="curve"/>
      <point x="1306" y="778" type="line"/>
      <point x="766" y="778" type="line"/>
      <point x="757" y="578" type="line"/>
      <point x="1151" y="578" type="line"/>
      <point x="1078" y="645" type="line"/>
      <point x="1078" y="142" type="line"/>
      <point x="1154" y="256" type="line"/>
      <point x="1091" y="225"/>
      <point x="1005" y="180"/>
      <point x="815" y="180" type="curve" smooth="yes"/>
      <point x="491" y="180"/>
      <point x="350" y="399"/>
      <point x="350" y="732" type="curve" smooth="yes"/>
      <point x="350" y="1063"/>
      <point x="543" y="1280"/>
      <point x="842" y="1280" type="curve" smooth="yes"/>
      <point x="996" y="1280"/>
      <point x="1104" y="1234"/>
      <point x="1212" y="1179" type="curve"/>
      <point x="1273" y="1367" type="line"/>
      <point x="1135" y="1446"/>
      <point x="1001" y="1480"/>
      <point x="826" y="1480" type="curve" smooth="yes"/>
      <point x="406" y="1480"/>
      <point x="96" y="1187"/>
      <point x="96" y="730" type="curve" smooth="yes"/>
      <point x="96" y="286"/>
      <point x="354" y="-20"/>
    </contour>
  </outline>
</glyph>
<glyph name="J" format="1">
  <advance width="798"/>
  <unicode hex="004A"/>
  <outline>
    <contour>
      <point x="153" y="-209" type="line" smooth="yes"/>
      <point x="492" y="-176"/>
      <point x="650" y="-91"/>
      <point x="650" y="253" type="curve" smooth="yes"/>
      <point x="650" y="1460" type="line"/>
      <point x="410" y="1460" type="line"/>
      <point x="410" y="258" type="line" smooth="yes"/>
      <point x="410" y="59"/>
      <point x="336" y="10"/>
      <point x="144" y="-15" type="curve" smooth="yes"/>
      <point x="19" y="-31" type="line"/>
      <point x="41" y="-220" type="line"/>
    </contour>
  </outline>
</glyph>
<glyph name="O" format="1">
  <advance width="1615"/>
  <unicode hex="004F"/>
  <outline>
    <contour>
      <point x="809" y="180" type="curve" smooth="yes"/>
      <point x="517" y="180"/>
      <point x="350" y="404"/>
      <point x="350" y="723" type="curve" smooth="yes"/>
      <point x="350" y="1052"/>
      <point x="523" y="1280"/>
      <point x="810" y="1280" type="curve" smooth="yes"/>
      <point x="1098" y="1280"/>
      <point x="1265" y="1051"/>
      <point x="1265" y="723" type="curve" smooth="yes"/>
      <point x="1265" y="404"/>
      <point x="1101" y="180"/>
    </contour>
    <contour>
      <point x="810" y="-20" type="curve" smooth="yes"/>
      <point x="1244" y="-20"/>
      <point x="1519" y="269"/>
      <point x="1519" y="723" type="curve" smooth="yes"/>
      <point x="1519" y="1187"/>
      <point x="1237" y="1480"/>
      <point x="810" y="1480" type="curve" smooth="yes"/>
      <point x="379" y="1480"/>
      <point x="96" y="1189"/>
      <point x="96" y="724" type="curve" smooth="yes"/>
      <point x="96" y="267"/>
      <point x="374" y="-20"/>
    </contour>
  </outline>
</glyph>
<glyph name="S" format="1">
  <advance width="1203.0870603"/>
  <unicode hex="0053"/>
  <outline>
    <contour>
      <point x="470" y="-96"/>
      <point x="1092" y="-96"/>
      <point x="1101" y="398" type="curve" smooth="yes"/>
      <point x="1105" y="639"/>
      <point x="971" y="743"/>
      <point x="733" y="828" type="curve" smooth="yes"/>
      <point x="502" y="906" type="line" smooth="yes"/>
      <point x="404" y="942"/>
      <point x="362" y="989"/>
      <point x="362" y="1083" type="curve" smooth="yes"/>
      <point x="362" y="1230"/>
      <point x="486" y="1276"/>
      <point x="632" y="1276" type="curve" smooth="yes"/>
      <point x="751" y="1276"/>
      <point x="885" y="1238"/>
      <point x="979" y="1186" type="curve"/>
      <point x="1058" y="1379" type="line"/>
      <point x="915" y="1450"/>
      <point x="758" y="1480"/>
      <point x="614" y="1480" type="curve" smooth="yes"/>
      <point x="347" y="1480"/>
      <point x="126" y="1365"/>
      <point x="126" y="1073" type="curve" smooth="yes"/>
      <point x="126" y="869"/>
      <point x="233" y="757"/>
      <point x="418" y="691" type="curve" smooth="yes"/>
      <point x="668" y="609" type="line" smooth="yes"/>
      <point x="809" y="559"/>
      <point x="864" y="511"/>
      <point x="864" y="400" type="curve" smooth="yes"/>
      <point x="864" y="108"/>
      <point x="411" y="131"/>
      <point x="157" y="324" type="curve"/>
      <point x="157" y="90" type="line"/>
    </contour>
  </outline>
</glyph>
<glyph name="n" format="1">
  <advance width="1160.0"/>
  <unicode hex="006E"/>
  <outline>
    <contour>
      <point x="126.0" y="0.0" type="line"/>
      <point x="350.0" y="0.0" type="line"/>
      <point x="350.0" y="529" type="line" smooth="yes"/>
      <point x="350.0" y="724"/>
      <point x="438.0" y="904"/>
      <point x="620.0" y="904" type="curve" smooth="yes"/>
      <point x="767.0" y="904"/>
      <point x="822.0" y="807"/>
      <point x="822.0" y="628" type="curve" smooth="yes"/>
      <point x="822.0" y="0" type="line"/>
      <point x="1046.0" y="0" type="line"/>
      <point x="1046.0" y="646" type="line" smooth="yes"/>
      <point x="1046.0" y="922"/>
      <point x="903.0" y="1076"/>
      <point x="676.0" y="1076" type="curve" smooth="yes"/>
      <point x="448.0" y="1076"/>
      <point x="358.0" y="942.0"/>
      <point x="307.0" y="786.0" type="curve"/>
      <point x="343.0" y="786.0" type="line"/>
      <point x="311.0" y="1058.0" type="line"/>
      <point x="126.0" y="1058.0" type="line"/>
    </contour>
  </outline>
</glyph>
<glyph name="r" format="1">
  <advance width="775"/>
  <unicode hex="0072"/>
  <outline>
    <contour>
      <point x="132" y="0" type="line"/>
      <point x="356" y="0" type="line"/>
      <point x="356" y="584" type="line" smooth="yes"/>
      <point x="356" y="797"/>
      <point x="475" y="893"/>
      <point x="656" y="893" type="curve" smooth="yes"/>
      <point x="680" y="893"/>
      <point x="707" y="892"/>
      <point x="737" y="886" type="curve"/>
      <point x="742" y="1059" type="line"/>
      <point x="717" y="1064"/>
      <point x="692" y="1065"/>
      <point x="666" y="1065" type="curve" smooth="yes"/>
      <point x="538" y="1065"/>
      <point x="395" y="1023"/>
      <point x="313" y="786" type="curve"/>
      <point x="351" y="786" type="line"/>
      <point x="317" y="1058" type="line"/>
      <point x="132" y="1058" type="line"/>
    </contour>
  </outline>
</glyph>
<glyph name="x" format="1">
  <advance width="1061"/>
  <unicode hex="0078"/>
  <outline>
    <contour>
      <point x="16" y="0" type="line"/>
      <point x="252" y="0" type="line"/>
      <point x="536" y="425" type="line"/>
      <point x="639" y="491" type="line"/>
      <point x="1034" y="1058" type="line"/>
      <point x="796" y="1058" type="line"/>
      <point x="528" y="649" type="line"/>
      <point x="423" y="579" type="line"/>
    </contour>
    <contour>
      <point x="796" y="0" type="line"/>
      <point x="1045" y="0" type="line"/>
      <point x="283" y="1058" type="line"/>
      <point x="36" y="1058" type="line"/>
    </contour>
  </outline>
</glyph>
<glyph name="cent" format="1">
  <advance width="982"/>
  <unicode hex="00A2"/>
  <outline>
    <contour>
      <point x="528" y="-278" type="line"/>
      <point x="614.0" y="-278.0" type="line"/>
      <point x="652.0" y="53.0" type="line"/>
      <point x="495.0" y="53.0" type="line"/>
    </contour>
    <contour>
      <point x="629" y="1340" type="line"/>
      <point x="543.0" y="1340.0" type="line"/>
      <point x="505.0" y="1009.0" type="line"/>
      <point x="662.0" y="1009.0" type="line"/>
    </contour>
    <component base="c"/>
  </outline>
</glyph>
<glyph name="degree" format="1">
  <advance width="789"/>
  <unicode hex="00B0"/>
  <outline>
    <contour>
      <point x="395" y="1019" type="curve" smooth="yes"/>
      <point x="305" y="1019"/>
      <point x="228" y="1085"/>
      <point x="228" y="1191" type="curve" smooth="yes"/>
      <point x="228" y="1295"/>
      <point x="306" y="1360"/>
      <point x="396" y="1360" type="curve" smooth="yes"/>
      <point x="484" y="1360"/>
      <point x="562" y="1295"/>
      <point x="562" y="1191" type="curve" smooth="yes"/>
      <point x="562" y="1085"/>
      <point x="485" y="1019"/>
    </contour>
    <contour>
      <point x="395" y="895" type="curve" smooth="yes"/>
      <point x="580" y="895"/>
      <point x="704" y="1033"/>
      <point x="704" y="1192" type="curve" smooth="yes"/>
      <point x="704" y="1356"/>
      <point x="576" y="1482"/>
      <point x="395" y="1482" type="curve" smooth="yes"/>
      <point x="214" y="1482"/>
      <point x="87" y="1356"/>
      <point x="87" y="1192" type="curve" smooth="yes"/>
      <point x="87" y="1029"/>
      <point x="212" y="895"/>
    </contour>
  </outline>
</glyph>
<glyph name="periodcentered" format="1">
  <advance width="405"/>
  <unicode hex="00B7"/>
  <outline>
    <contour>
      <point x="116" y="558" type="line"/>
      <point x="116" y="721" type="line"/>
      <point x="284" y="721" type="line"/>
      <point x="284" y="558" type="line"/>
    </contour>
  </outline>
</glyph>
<glyph name="Thorn" format="1">
  <advance width="1150"/>
  <unicode hex="00DE"/>
  <outline>
    <contour>
      <point x="148" y="0" type="line"/>
      <point x="388" y="0" type="line"/>
      <point x="388" y="489" type="line"/>
      <point x="321" y="422" type="line"/>
      <point x="583" y="422" type="line" smooth="yes"/>
      <point x="969" y="422"/>
      <point x="1088" y="569"/>
      <point x="1088" y="810" type="curve" smooth="yes"/>
      <point x="1088" y="1081"/>
      <point x="886" y="1162"/>
      <point x="584" y="1162" type="curve" smooth="yes"/>
      <point x="148" y="1162" type="line"/>
    </contour>
    <contour>
      <point x="576" y="597" type="curve" smooth="yes"/>
      <point x="323" y="597" type="line"/>
      <point x="388" y="538" type="line"/>
      <point x="388" y="1052" type="line"/>
      <point x="323" y="994" type="line"/>
      <point x="594" y="994" type="line" smooth="yes"/>
      <point x="771" y="994"/>
      <point x="835" y="942"/>
      <point x="835" y="805" type="curve" smooth="yes"/>
      <point x="835" y="661"/>
      <point x="801" y="597"/>
    </contour>
    <contour>
      <point x="388" y="1150" type="line"/>
      <point x="388" y="1460" type="line"/>
      <point x="148" y="1460" type="line"/>
      <point x="148" y="1150" type="line"/>
    </contour>
  </outline>
</glyph>
<glyph name="ae" format="1">
  <advance width="1689"/>
  <unicode hex="00E6"/>
  <outline>
    <contour>
      <point x="418" y="-20" type="curve" smooth="yes"/>
      <point x="596" y="-20"/>
      <point x="777" y="55"/>
      <point x="866" y="144" type="curve"/>
      <point x="944" y="40"/>
      <point x="1101" y="-18"/>
      <point x="1274" y="-18" type="curve" smooth="yes"/>
      <point x="1432" y="-18"/>
      <point x="1528" y="28"/>
      <point x="1583" y="64" type="curve"/>
      <point x="1549" y="218" type="line"/>
      <point x="1483" y="184"/>
      <point x="1394" y="151"/>
      <point x="1278" y="151" type="curve" smooth="yes"/>
      <point x="1096" y="152"/>
      <point x="960" y="236"/>
      <point x="950" y="469" type="curve"/>
      <point x="1487" y="469"/>
      <point x="1611" y="593"/>
      <point x="1611" y="766" type="curve" smooth="yes"/>
      <point x="1611" y="926"/>
      <point x="1521" y="1077"/>
      <point x="1235" y="1077" type="curve" smooth="yes"/>
      <point x="1081" y="1077"/>
      <point x="932" y="998"/>
      <point x="872" y="880" type="curve"/>
      <point x="813" y="1006"/>
      <point x="673" y="1077"/>
      <point x="508" y="1077" type="curve" smooth="yes"/>
      <point x="354" y="1077"/>
      <point x="225" y="1040"/>
      <point x="137" y="998" type="curve"/>
      <point x="186" y="838" type="line"/>
      <point x="261" y="872"/>
      <point x="368" y="905"/>
      <point x="485" y="905" type="curve"/>
      <point x="629" y="905"/>
      <point x="735" y="854"/>
      <point x="735" y="698" type="curve" smooth="yes"/>
      <point x="735" y="613" type="line"/>
      <point x="605" y="613" type="line" smooth="yes"/>
      <point x="281" y="613"/>
      <point x="88" y="549"/>
      <point x="88" y="313" type="curve" smooth="yes"/>
      <point x="88" y="111"/>
      <point x="223" y="-20"/>
    </contour>
    <contour>
      <point x="449" y="141" type="curve" smooth="yes"/>
      <point x="352" y="141"/>
      <point x="295" y="193"/>
      <point x="295" y="305" type="curve" smooth="yes"/>
      <point x="295" y="415"/>
      <point x="367" y="465"/>
      <point x="598" y="465" type="curve" smooth="yes"/>
      <point x="739" y="465" type="line"/>
      <point x="742" y="393"/>
      <point x="763" y="316"/>
      <point x="781" y="272" type="curve"/>
      <point x="696" y="196"/>
      <point x="555" y="141"/>
    </contour>
    <contour>
      <point x="952" y="613" type="curve"/>
      <point x="975" y="856"/>
      <point x="1111" y="923"/>
      <point x="1252" y="923" type="curve" smooth="yes"/>
      <point x="1377" y="923"/>
      <point x="1435" y="877"/>
      <point x="1435" y="775" type="curve" smooth="yes"/>
      <point x="1435" y="662"/>
      <point x="1320" y="613"/>
    </contour>
  </outline>
</glyph>
<glyph name="eth" format="1">
  <advance width="1169"/>
  <unicode hex="00F0"/>
  <outline>
    <contour>
      <point x="599" y="-22" type="curve" smooth="yes"/>
      <point x="924" y="-22"/>
      <point x="1111" y="173"/>
      <point x="1111" y="467" type="curve" smooth="yes"/>
      <point x="1110" y="607"/>
      <point x="1073" y="739"/>
      <point x="1016" y="840" type="curve"/>
      <point x="943" y="968"/>
      <point x="839" y="1088"/>
      <point x="694" y="1247" type="curve"/>
      <point x="918" y="1334" type="line"/>
      <point x="858" y="1485" type="line"/>
      <point x="583" y="1376" type="line"/>
      <point x="455" y="1502" type="line"/>
      <point x="196" y="1502" type="line"/>
      <point x="404" y="1302" type="line"/>
      <point x="210" y="1225" type="line"/>
      <point x="268" y="1075" type="line"/>
      <point x="516" y="1172" type="line"/>
      <point x="616" y="1074"/>
      <point x="717" y="955"/>
      <point x="764" y="883" type="curve"/>
      <point x="717" y="909"/>
      <point x="653" y="941"/>
      <point x="566" y="941" type="curve" smooth="yes"/>
      <point x="280" y="941"/>
      <point x="83" y="753"/>
      <point x="83" y="471" type="curve" smooth="yes"/>
      <point x="83" y="194"/>
      <point x="280" y="-22"/>
    </contour>
    <contour>
      <point x="605" y="152" type="curve" smooth="yes"/>
      <point x="403" y="152"/>
      <point x="296" y="298"/>
      <point x="296" y="472" type="curve" smooth="yes"/>
      <point x="296" y="656"/>
      <point x="405" y="782"/>
      <point x="599" y="782" type="curve" smooth="yes"/>
      <point x="798" y="782"/>
      <point x="910" y="644"/>
      <point x="910" y="473" type="curve" smooth="yes"/>
      <point x="910" y="279"/>
      <point x="803" y="152"/>
    </contour>
  </outline>
</glyph>
<glyph name="thorn" format="1">
  <advance width="1163"/>
  <unicode hex="00FE"/>
  <outline>
    <contour>
      <point x="122" y="1460" type="line"/>
      <point x="122" y="763" type="line"/>
      <point x="347" y="763" type="line"/>
      <point x="347" y="1480" type="line"/>
    </contour>
    <component base="p"/>
  </outline>
</glyph>
<glyph name="dcroat" format="1">
  <advance width="1301"/>
  <unicode hex="0111"/>
  <outline>
    <contour>
      <point x="140" y="1220" type="line"/>
      <point x="140" y="1331" type="line"/>
      <point x="645" y="1331" type="line"/>
      <point x="645" y="1220" type="line"/>
    </contour>
    <component base="d"/>
  </outline>
</glyph>
<glyph name="tbar" format="1">
  <advance width="889"/>
  <unicode hex="0167"/>
  <outline>
    <contour>
      <point x="576" y="-19" type="curve" smooth="yes"/>
      <point x="311" y="-19"/>
      <point x="291" y="110"/>
      <point x="291" y="442" type="curve" smooth="yes"/>
      <point x="291" y="634" type="line"/>
      <point x="137" y="634" type="line"/>
      <point x="137" y="759" type="line"/>
      <point x="291" y="759" type="line"/>
      <point x="291" y="973" type="line"/>
      <point x="124" y="973" type="line"/>
      <point x="138" y="1090" type="line"/>
      <point x="291" y="1090" type="line"/>
      <point x="334" y="1337" type="line"/>
      <point x="457" y="1345" type="line"/>
      <point x="457" y="1090" type="line"/>
      <point x="746" y="1090" type="line"/>
      <point x="746" y="973" type="line"/>
      <point x="457" y="973" type="line"/>
      <point x="457" y="759" type="line"/>
      <point x="665" y="759" type="line"/>
      <point x="665" y="634" type="line"/>
      <point x="457" y="634" type="line"/>
      <point x="457" y="364" type="line" smooth="yes"/>
      <point x="457" y="160"/>
      <point x="480" y="116"/>
      <point x="614" y="116" type="curve" smooth="yes"/>
      <point x="632" y="116"/>
      <point x="674" y="123"/>
      <point x="750" y="128" type="curve"/>
      <point x="765" y="-6" type="line"/>
      <point x="641" y="-17"/>
      <point x="610" y="-19"/>
    </contour>
  </outline>
</glyph>
<glyph name="breve" format="1">
  <advance width="684"/>
  <unicode hex="02D8"/>
  <outline>
    <contour>
      <point x="341" y="1209" type="curve" smooth="yes"/>
      <point x="490" y="1209"/>
      <point x="608" y="1286"/>
      <point x="608" y="1460" type="curve"/>
      <point x="461" y="1460" type="line"/>
      <point x="461" y="1380"/>
      <point x="416" y="1349"/>
      <point x="341" y="1349" type="curve" smooth="yes"/>
      <point x="266" y="1349"/>
      <point x="223" y="1380"/>
      <point x="223" y="1460" type="curve"/>
      <point x="75" y="1460" type="line"/>
      <point x="75" y="1287"/>
      <point x="193" y="1209"/>
    </contour>
  </outline>
</glyph>
<glyph name="hungarumlaut" format="1">
  <advance width="831"/>
  <unicode hex="02DD"/>
  <outline>
    <contour>
      <point x="125" y="1058" type="line"/>
      <point x="249" y="1058" type="line"/>
      <point x="539" y="1460" type="line"/>
      <point x="333" y="1460" type="line"/>
    </contour>
    <contour>
      <point x="396" y="1058" type="line"/>
      <point x="520" y="1058" type="line"/>
      <point x="832" y="1460" type="line"/>
      <point x="620" y="1460" type="line"/>
    </contour>
  </outline>
</glyph>
<glyph name="uni0326" format="1">
  <advance width="302"/>
  <unicode hex="0326"/>
  <outline>
    <contour>
      <point x="52" y="-677" type="line"/>
      <point x="135" y="-200" type="line"/>
      <point x="240" y="-200" type="line"/>
      <point x="119" y="-677" type="line"/>
    </contour>
  </outline>
</glyph>
<glyph name="uni0423" format="1">
  <advance width="1361"/>
  <unicode hex="0423"/>
  <outline>
    <contour>
      <point x="425" y="0" type="line"/>
      <point x="694" y="546" type="line"/>
      <point x="711" y="463" type="line"/>
      <point x="161" y="1469" type="line"/>
      <point x="278" y="1469" type="line"/>
      <point x="764" y="563" type="line"/>
      <point x="720" y="595" type="line"/>
      <point x="1123" y="1469" type="line"/>
      <point x="1241" y="1469" type="line"/>
      <point x="543" y="0" type="line"/>
    </contour>
  </outline>
</glyph>
<glyph name="uni0429" format="1">
  <advance width="1763"/>
  <unicode hex="0429"/>
  <outline>
    <contour>
      <point x="1532" y="-311" type="line"/>
      <point x="1738" y="-311" type="line"/>
      <point x="1738" y="137" type="line"/>
      <point x="1616" y="137" type="line"/>
      <point x="1616" y="1457" type="line"/>
      <point x="1385" y="1457" type="line"/>
      <point x="1385" y="180" type="line"/>
      <point x="1021" y="180" type="line"/>
      <point x="1021" y="1457" type="line"/>
      <point x="791" y="1457" type="line"/>
      <point x="791" y="180" type="line"/>
      <point x="412" y="180" type="line"/>
      <point x="412" y="1457" type="line"/>
      <point x="182" y="1457" type="line"/>
      <point x="182" y="0" type="line"/>
      <point x="1532" y="0" type="line"/>
    </contour>
  </outline>
</glyph>
<glyph name="uni043C" format="1">
  <advance width="1386"/>
  <unicode hex="043C"/>
  <outline>
    <contour>
      <point x="197" y="0" type="line"/>
      <point x="197" y="1076" type="line"/>
      <point x="308" y="1076" type="line"/>
      <point x="697" y="297" type="line"/>
      <point x="1082" y="1076" type="line"/>
      <point x="1190" y="1076" type="line"/>
      <point x="1190" y="0" type="line"/>
      <point x="1075" y="0" type="line"/>
      <point x="1075" y="835" type="line"/>
      <point x="742" y="165" type="line"/>
      <point x="649" y="165" type="line"/>
      <point x="312" y="835" type="line"/>
      <point x="312" y="0" type="line"/>
    </contour>
  </outline>
</glyph>
<glyph name="uni043D" format="1">
  <advance width="1270"/>
  <unicode hex="043D"/>
  <outline>
    <contour>
      <point x="197" y="0" type="line"/>
      <point x="197" y="1076" type="line"/>
      <point x="321" y="1076" type="line"/>
      <point x="321" y="620" type="line"/>
      <point x="951" y="620" type="line"/>
      <point x="951" y="1076" type="line"/>
      <point x="1075" y="1076" type="line"/>
      <point x="1075" y="0" type="line"/>
      <point x="951" y="0" type="line"/>
      <point x="951" y="523" type="line"/>
      <point x="321" y="523" type="line"/>
      <point x="321" y="0" type="line"/>
    </contour>
  </outline>
</glyph>
<glyph name="uni0443" format="1">
  <advance width="1140"/>
  <unicode hex="0443"/>
  <outline>
    <contour>
      <point x="256" y="-310" type="curve"/>
      <point x="256" y="-207" type="line"/>
      <point x="559" y="-207"/>
      <point x="598" y="-187"/>
      <point x="596" y="29" type="curve" smooth="yes"/>
      <point x="594" y="218" type="line"/>
      <point x="627" y="86" type="line"/>
      <point x="120" y="1076" type="line"/>
      <point x="247" y="1076" type="line"/>
      <point x="671" y="234" type="line"/>
      <point x="620" y="234" type="line"/>
      <point x="965" y="1076" type="line"/>
      <point x="1087" y="1076" type="line"/>
      <point x="685" y="94" type="line"/>
      <point x="708" y="225" type="line"/>
      <point x="710" y="27" type="line" smooth="yes"/>
      <point x="713" y="-250"/>
      <point x="673" y="-310"/>
    </contour>
  </outline>
</glyph>
<glyph name="uni0444" format="1">
  <advance width="1502"/>
  <unicode hex="0444"/>
  <outline>
    <contour>
      <point x="658" y="-389" type="line"/>
      <point x="658" y="82" type="line"/>
      <point x="596" y="53"/>
      <point x="509" y="44"/>
      <point x="437" y="44" type="curve" smooth="yes"/>
      <point x="231" y="44"/>
      <point x="64" y="254"/>
      <point x="64" y="552" type="curve" smooth="yes"/>
      <point x="64" y="850"/>
      <point x="211" y="1039"/>
      <point x="426" y="1039" type="curve" smooth="yes"/>
      <point x="493" y="1039"/>
      <point x="596" y="1018"/>
      <point x="658" y="989" type="curve"/>
      <point x="658" y="1330" type="line"/>
      <point x="763" y="1330" type="line"/>
      <point x="763" y="989" type="line"/>
      <point x="828" y="1019"/>
      <point x="920" y="1039"/>
      <point x="992" y="1039" type="curve" smooth="yes"/>
      <point x="1206" y="1039"/>
      <point x="1357" y="851"/>
      <point x="1357" y="553" type="curve" smooth="yes"/>
      <point x="1357" y="257"/>
      <point x="1190" y="44"/>
      <point x="982" y="44" type="curve" smooth="yes"/>
      <point x="910" y="44"/>
      <point x="823" y="53"/>
      <point x="763" y="82" type="curve"/>
      <point x="763" y="-389" type="line"/>
    </contour>
    <contour>
      <point x="443" y="137" type="curve" smooth="yes"/>
      <point x="509" y="137"/>
      <point x="593" y="144"/>
      <point x="658" y="178" type="curve"/>
      <point x="658" y="903" type="line"/>
      <point x="584" y="943"/>
      <point x="493" y="948"/>
      <point x="425" y="948" type="curve" smooth="yes"/>
      <point x="263" y="948"/>
      <point x="185" y="769"/>
      <point x="185" y="553" type="curve" smooth="yes"/>
      <point x="185" y="339"/>
      <point x="281" y="137"/>
    </contour>
    <contour>
      <point x="978" y="137" type="curve" smooth="yes"/>
      <point x="1137" y="137"/>
      <point x="1237" y="338"/>
      <point x="1237" y="552" type="curve" smooth="yes"/>
      <point x="1237" y="769"/>
      <point x="1154" y="947"/>
      <point x="994" y="947" type="curve" smooth="yes"/>
      <point x="922" y="947"/>
      <point x="835" y="936"/>
      <point x="763" y="896" type="curve"/>
      <point x="763" y="183" type="line"/>
      <point x="831" y="143"/>
      <point x="910" y="137"/>
    </contour>
  </outline>
</glyph>
<glyph name="radical" format="1">
  <advance width="1265"/>
  <unicode hex="221A"/>
  <outline>
    <contour>
      <point x="609" y="-165" type="line"/>
      <point x="278" y="737" type="line"/>
      <point x="126" y="707" type="line"/>
      <point x="111" y="827" type="line"/>
      <point x="370" y="883" type="line"/>
      <point x="609" y="228" type="line"/>
      <point x="668" y="44" type="line"/>
      <point x="803" y="599"/>
      <point x="936" y="1150"/>
      <point x="1072" y="1705" type="curve"/>
      <point x="1184" y="1705" type="line"/>
      <point x="747" y="-165" type="line"/>
    </contour>
  </outline>
</glyph>
